<?xml version="1.0" encoding="UTF-8" standalone="no"?>
<svg width="558px" height="152px" viewBox="0 0 558 152" version="1.1" xmlns="http://www.w3.org/2000/svg" xmlns:xlink="http://www.w3.org/1999/xlink">
    <g id="Page-1" stroke="none" stroke-width="1" fill="#EF274A" fill-rule="evenodd" fill-opacity="0.82">
        <g id="4.1-2" transform="translate(-121.000000, -218.000000)" fill="#EF274A">
            <g id="logo" transform="translate(121.000000, 218.000000)">
                <path d="M1.8,66 C5.35201776,65.3279966 8.27998848,63.4800151 10.584,60.456 C12.8880115,57.4319849 14.04,54.0000192 14.04,50.16 L14.04,26.832 C14.04,19.631964 16.1039794,13.8960214 20.232,9.624 C24.3600206,5.35197864 29.8799654,2.64000576 36.792,1.488 L46.152,0.048 C47.5920072,1.58400768 48.6719964,3.57598776 49.392,6.024 C50.1120036,8.47201224 50.472,10.2479945 50.472,11.352 C50.472,12.4560055 50.376001,13.2959971 50.184,13.872 L41.688,16.752 C39.9599914,17.3280029 38.496006,18.5039911 37.296,20.28 C36.095994,22.0560089 35.496,24.2879866 35.496,26.976 L35.496,49.872 C35.496,54.7680245 34.3440115,59.3039791 32.04,63.48 C29.7359885,67.6560209 26.7120187,70.6079914 22.968,72.336 L22.968,73.488 C26.7120187,75.1200082 29.7359885,78.0239791 32.04,82.2 C34.3440115,86.3760209 35.496,90.959975 35.496,95.952 L35.496,118.704 C35.496,121.392013 36.095994,123.623991 37.296,125.4 C38.496006,127.176009 39.9599914,128.351997 41.688,128.928 L50.184,131.808 C50.376001,132.384003 50.472,133.223994 50.472,134.328 C50.472,135.432006 50.1120036,137.231988 49.392,139.728 C48.6719964,142.224012 47.5920072,144.239992 46.152,145.776 L36.792,144.192 C29.8799654,143.135995 24.3600206,140.448022 20.232,136.128 C16.1039794,131.807978 14.04,126.048036 14.04,118.848 L14.04,95.664 C14.04,91.8239808 12.8880115,88.3680154 10.584,85.296 C8.27998848,82.2239846 5.35201776,80.3520034 1.8,79.68 C1.12799664,78.0479918 0.792,75.7920144 0.792,72.912 C0.792,70.0319856 1.12799664,67.7280086 1.8,66 L1.8,66 Z" id="{"></path>
                <path d="M164.376,51.888 C164.376,58.3200322 162.624018,63.8879765 159.12,68.592 C155.615982,73.2960235 151.512024,76.5119914 146.808,78.24 C151.704024,79.9680086 155.351988,84.335965 157.752,91.344 L162.36,104.16 C163.992008,108.768023 166.343985,112.271988 169.416,114.672 C167.975993,116.59201 165.912013,118.175994 163.224,119.424 C160.535987,120.672006 157.512017,121.296 154.152,121.296 C150.791983,121.296 148.200009,120.33601 146.376,118.416 C144.551991,116.49599 142.824008,113.184024 141.192,108.48 L135.72,92.784 C134.759995,89.8079851 133.344009,87.5040082 131.472,85.872 C129.599991,84.2399918 126.840018,83.424 123.192,83.424 L116.424,83.424 L116.424,120 C113.543986,120.576003 109.896022,120.864 105.48,120.864 C101.063978,120.864 97.4640139,120.576003 94.68,120 L94.68,22.368 L95.688,21.36 C111.816081,20.9759981 123.143967,20.784 129.672,20.784 C140.136052,20.784 148.535968,23.3999738 154.872,28.632 C161.208032,33.8640262 164.376,41.6159486 164.376,51.888 Z M116.424,37.344 L116.424,66.576 C122.760032,66.383999 126.599993,66.288 127.944,66.288 C137.256047,66.288 141.912,61.488048 141.912,51.888 C141.912,42.287952 137.256047,37.488 127.944,37.488 C123.143976,37.488 119.304014,37.4400005 116.424,37.344 Z" id="R"></path>
                <path d="M231.912,54.48 C238.824035,61.3920346 242.28,71.2559359 242.28,84.072 C242.28,96.8880641 238.824035,106.751965 231.912,113.664 C226.247972,119.328028 218.712047,122.16 209.304,122.16 C199.895953,122.16 192.360028,119.328028 186.696,113.664 C179.783965,106.751965 176.328,96.8880641 176.328,84.072 C176.328,71.2559359 179.783965,61.3920346 186.696,54.48 C192.360028,48.9119722 199.895953,46.128 209.304,46.128 C218.712047,46.128 226.247972,48.9119722 231.912,54.48 Z M198.36,84.144 C198.36,91.152035 199.103993,96.551981 200.592,100.344 C202.080007,104.136019 204.983978,106.032 209.304,106.032 C213.624022,106.032 216.527993,104.136019 218.016,100.344 C219.504007,96.551981 220.248,91.152035 220.248,84.144 C220.248,77.135965 219.504007,71.7120192 218.016,67.872 C216.527993,64.0319808 213.624022,62.112 209.304,62.112 C204.983978,62.112 202.080007,64.0319808 200.592,67.872 C199.103993,71.7120192 198.36,77.135965 198.36,84.144 Z" id="o"></path>
                <path d="M255.528,95.952 L255.528,65.856 C255.528,59.8079698 254.376012,55.1040168 252.072,51.744 C255.624018,48.6719846 259.775976,47.136 264.528,47.136 C269.280024,47.136 272.543991,48.239989 274.32,50.448 C276.096009,52.656011 276.984,55.9679779 276.984,60.384 L276.984,91.92 C276.984,95.4720178 277.463995,98.0399921 278.424,99.624 C279.384005,101.208008 281.063988,102 283.464,102 C287.592021,102 291.479982,100.224018 295.128,96.672 L295.128,48.288 C298.104015,47.7119971 301.655979,47.424 305.784,47.424 C309.912021,47.424 313.559984,47.7119971 316.728,48.288 L316.728,99.552 C316.728,104.832026 318.071987,108.43199 320.76,110.352 C320.375998,112.27201 319.512007,114.26399 318.168,116.328 C316.823993,118.39201 315.432007,119.999994 313.992,121.152 C306.311962,120.863999 300.840016,117.504032 297.576,111.072 C290.279964,117.888034 283.176035,121.296 276.264,121.296 C269.351965,121.296 264.168017,118.968023 260.712,114.312 C257.255983,109.655977 255.528,103.536038 255.528,95.952 L255.528,95.952 Z" id="u"></path>
                <path d="M337.248,111.36 C332.879978,104.639966 330.696,95.4720581 330.696,83.856 C330.696,72.2399419 333.455972,63.0480338 338.976,56.28 C344.496028,49.5119662 351.167961,46.128 358.992,46.128 C366.816039,46.128 373.319974,48.3839774 378.504,52.896 C381.768016,49.3439822 386.135973,47.4240014 391.608,47.136 C393.048007,48.1920053 394.439993,49.823989 395.784,52.032 C397.128007,54.240011 397.943999,56.2559909 398.232,58.08 C395.543987,60.0960101 394.2,63.6959741 394.2,68.88 L394.2,107.616 C394.2,123.936082 391.800024,135.215969 387,141.456 C381.527973,148.368035 372.648061,151.824 360.36,151.824 C351.047953,151.824 342.120043,150.240016 333.576,147.072 C333.576,144.479987 334.079995,141.672015 335.088,138.648 C336.096005,135.623985 337.367992,133.248009 338.904,131.52 C345.240032,134.400014 351.719967,135.84 358.344,135.84 C368.32805,135.84 373.32,130.704051 373.32,120.432 L373.32,115.536 C368.135974,119.47202 362.56803,121.44 356.616,121.44 C348.071957,121.44 341.616022,118.080034 337.248,111.36 Z M373.32,98.832 L373.32,67.296 C369.767982,63.9359832 366.408016,62.256 363.24,62.256 C356.231965,62.256 352.728,69.6479261 352.728,84.432 C352.728,91.0560331 353.567992,95.9999837 355.248,99.264 C356.928008,102.528016 359.159986,104.16 361.944,104.16 C366.072021,104.16 369.863983,102.384018 373.32,98.832 Z" id="g"></path>
                <path d="M467.496,91.056 L429.336,91.056 C429.624001,95.664023 430.77599,99.2399873 432.792,101.784 C434.80801,104.328013 438.359975,105.6 443.448,105.6 C448.536025,105.6 454.583965,104.112015 461.592,101.136 C464.568015,104.016014 466.535995,108.287972 467.496,113.952 C459.719961,119.424027 450.312055,122.16 439.272,122.16 C433.31997,122.16 428.184022,121.12801 423.864,119.064 C419.543978,116.99999 416.232012,114.144018 413.928,110.496 C409.703979,103.487965 407.592,94.5120547 407.592,83.568 C407.592,72.6239453 410.231974,63.648035 415.512,56.64 C420.792026,49.631965 428.42395,46.128 438.408,46.128 C448.39205,46.128 456.047973,48.9839714 461.376,54.696 C466.704027,60.4080286 469.368,67.7279554 469.368,76.656 C469.368,81.648025 468.744006,86.447977 467.496,91.056 Z M447.048,65.064 C445.415992,62.6159878 442.896017,61.392 439.488,61.392 C436.079983,61.392 433.584008,62.591988 432,64.992 C430.415992,67.392012 429.480001,71.1359746 429.192,76.224 L449.496,76.224 L449.496,74.496 C449.496,70.6559808 448.680008,67.5120122 447.048,65.064 Z" id="e"></path>
                <path d="M556.2,66 C556.872003,67.7280086 557.208,70.0319856 557.208,72.912 C557.208,75.7920144 556.872003,78.0479918 556.2,79.68 C552.743983,80.3520034 549.864012,82.2239846 547.56,85.296 C545.255988,88.3680154 544.104,91.8239808 544.104,95.664 L544.104,118.848 C544.104,126.048036 542.016021,131.807978 537.84,136.128 C533.663979,140.448022 528.120035,143.135995 521.208,144.192 L511.992,145.776 C510.551993,144.239992 509.472004,142.224012 508.752,139.728 C508.031996,137.231988 507.672,135.432006 507.672,134.328 C507.672,133.223994 507.767999,132.384003 507.96,131.808 L516.456,128.928 C518.184009,128.351997 519.623994,127.176009 520.776,125.4 C521.928006,123.623991 522.504,121.392013 522.504,118.704 L522.504,95.952 C522.504,90.959975 523.679988,86.3760209 526.032,82.2 C528.384012,78.0239791 531.431981,75.1200082 535.176,73.488 L535.176,72.336 C531.431981,70.6079914 528.384012,67.6560209 526.032,63.48 C523.679988,59.3039791 522.504,54.7680245 522.504,49.872 L522.504,26.976 C522.504,24.2879866 521.928006,22.0560089 520.776,20.28 C519.623994,18.5039911 518.184009,17.3280029 516.456,16.752 L507.96,13.872 C507.767999,13.2959971 507.672,12.4560055 507.672,11.352 C507.672,10.2479945 508.031996,8.47201224 508.752,6.024 C509.472004,3.57598776 510.551993,1.58400768 511.992,0.048 L521.208,1.488 C528.120035,2.64000576 533.663979,5.3759784 537.84,9.696 C542.016021,14.0160216 544.104,19.7279645 544.104,26.832 L544.104,50.16 C544.104,54.0000192 545.231989,57.4319849 547.488,60.456 C549.744011,63.4800151 552.647982,65.3279966 556.2,66 L556.2,66 Z" id="}"></path>
            </g>
        </g>
    </g>
</svg>
